<svg class="icon" style="width: 1em;height: 1em;vertical-align: middle;fill: currentColor;overflow: hidden;" viewBox="0 0 1024 1024" version="1.1" xmlns="http://www.w3.org/2000/svg" p-id="3463"><path d="M382.293 692.497a37.956 37.956 0 0 1-32.29 7.373v0.205l-278.118-84.31a39.39 39.39 0 0 1-5.803-73.113l862.14-420.045a39.39 39.39 0 0 1 55.432 45.056L823.228 800.358a39.39 39.39 0 0 1-49.63 27.99l-295.595-89.566a15.428 15.428 0 0 1-12.083-14.814c0-4.437 1.98-8.397 5.12-11.196l356.762-401.135-445.44 380.792h-0.069z m98.031 93.867l54 17.886a15.428 15.428 0 0 1 7.986 23.142l-53.93 81.92a15.428 15.428 0 0 1-28.33-8.533v-99.806a15.428 15.428 0 0 1 20.274-14.61z"></path></svg>