<svg class="icon" style="width: 1em;height: 1em;vertical-align: middle;fill: currentColor;overflow: hidden;" viewBox="0 0 1024 1024" version="1.1" xmlns="http://www.w3.org/2000/svg" p-id="6964"><path d="M567.8 108.7H448.4c-49.5 0.9-88.9 41.8-87.9 91.2 0.9 48.2 39.7 87.9 87.9 87.9h119.5c49.5 0 88.9-41.8 87.9-91.2-0.9-48.2-39.8-87-88-87.9z m0 299.2H448.4c-49.5 0.9-88.9 41.8-87.9 91.3 0.9 48.2 39.7 86.1 87.9 87.9h119.5c49.5-1.8 88.9-41.8 87.9-91.2-0.9-48.3-39.8-87.1-88-88z m0 298.3H448.4c-49.5 1.8-88.9 41.8-87.9 91.2 0.9 48.2 39.8 87 87.9 87.9h119.5c49.5-0.9 88.8-41.8 87.9-91.3-0.9-48.2-39.6-86.8-88-87.7v-0.1zM239 765.8c-31.7 0.1-62-12.5-84.4-34.9-22.4-22.4-35-52.8-34.9-84.5-0.1-31.7 12.5-62 35-84.4 22.4-22.5 52.8-34.9 84.6-34.9h59.6v-60h-59.6c-99 0-179.4 80.3-179.4 179.2 0 98.9 80.4 179.2 179 179.2v59.7l89.6-89.6-89.7-89.6v59.7h0.2z m538-597.1h-59.6v60H777c31.7 0 62.1 12.3 84.5 34.7 22.6 22.6 35 52.4 35 84.4 0 31.9-12.7 61.8-35.2 84.4-22.4 22.4-53.4 35-84.8 34.9v-59.7L686.9 497l89.6 89.6v-59.7c98.6 0 179.4-80.2 179.4-179.1 0.1-99-80-179.1-178.9-179.1z m0 0" p-id="6965"></path></svg>