<svg class="icon" style="width: 1em;height: 1em;vertical-align: middle;fill: currentColor;overflow: hidden;" viewBox="0 0 1024 1024" version="1.1" xmlns="http://www.w3.org/2000/svg" p-id="13138"><path d="M225.5 803c-35.35 0-64-28.65-64-64V504c0-35.35 28.65-64 64-64s64 28.65 64 64v235c0 35.35-28.65 64-64 64zM516.25 803c-35.35 0-64-28.65-64-64V203c0-35.35 28.65-64 64-64s64 28.65 64 64v536c0 35.35-28.65 64-64 64zM807 803c-35.35 0-64-28.65-64-64V297c0-35.35 28.65-64 64-64s64 28.65 64 64v442c0 35.35-28.65 64-64 64zM893.5 928h-761c-19.05 0-34.5-15.45-34.5-34.5s15.45-34.5 34.5-34.5h761c19.05 0 34.5 15.45 34.5 34.5S912.55 928 893.5 928z" p-id="13139"></path></svg>