<svg class="icon" style="width: 1em;height: 1em;vertical-align: middle;fill: currentColor;overflow: hidden;" viewBox="0 0 1028 1024" version="1.1" xmlns="http://www.w3.org/2000/svg" p-id="6361"><path d="M875.086452 153.730058C676.053818-45.302575 353.260522-45.302575 154.128323 153.730058s-199.032634 521.825929 0 720.958129 521.825929 199.032634 720.958129 0 199.032634-521.825929 0-720.958129zM725.836868 725.438604c-9.757478 9.757478-25.488922 9.757478-35.246399 0L514.557604 549.405739 338.624306 725.438604c-9.757478 9.757478-25.488922 9.757478-35.2464 0s-9.757478-25.488922 0-35.2464l176.032865-176.032864-176.032865-175.933299c-9.757478-9.757478-9.757478-25.488922 0-35.246399 9.757478-9.757478 25.488922-9.757478 35.2464 0l176.032864 176.032865 176.032865-176.032865c9.757478-9.757478 25.488922-9.757478 35.246399 0 9.757478 9.757478 9.757478 25.488922 0 35.246399L549.804004 514.15934 725.836868 690.192204c9.657912 9.757478 9.657912 25.488922 0 35.2464z" fill="#F56C6C"></path></svg>