<svg xmlns="http://www.w3.org/2000/svg" width="59.622" height="59.616" viewBox="0 0 59.622 59.616">
  <g id="通过" transform="translate(-291.798 -153.753)">
    <g id="组_977" data-name="组 977" transform="translate(291.798 153.753)">
      <path id="路径_604" data-name="路径 604" d="M29.853,59.769a29.8,29.8,0,1,1,25.88-15.078,29.806,29.806,0,0,1-25.88,15.078Zm-.1-58.37a28.621,28.621,0,1,0,7.1.9,28.576,28.576,0,0,0-7.1-.9Z" transform="translate(0 -0.153)" fill="#00b42a"/>
      <path id="路径_605" data-name="路径 605" d="M64.173,92.121a27.692,27.692,0,1,1,14.1-3.877A27.693,27.693,0,0,1,64.173,92.121Zm-.092-54.593a26.979,26.979,0,1,0,6.683.846,26.88,26.88,0,0,0-6.683-.846Z" transform="translate(-34.325 -34.602)" fill="#00b42a"/>
      <path id="路径_606" data-name="路径 606" d="M221.473,224.75l-1.213-.309A17.511,17.511,0,0,1,241.564,211.8l-.309,1.213A16.26,16.26,0,0,0,221.473,224.75Zm15.772,21.539a17.482,17.482,0,0,1-4.336-.538l.309-1.213A16.285,16.285,0,0,0,253,232.792l1.213.309a17.548,17.548,0,0,1-16.969,13.187Z" transform="translate(-207.434 -198.955)" fill="#00b42a"/>
      <path id="路径_607" data-name="路径 607" d="M124.715,88.9l-.809-.2a15.539,15.539,0,0,1,18.87-11.207l-.2.809a14.7,14.7,0,0,0-17.857,10.6Zm14.238,19.15a15.484,15.484,0,0,1-3.832-.484l.2-.809a14.7,14.7,0,0,0,17.849-10.59l.809.2a15.547,15.547,0,0,1-15.03,11.678ZM125.982,69.952l.88.78a.417.417,0,0,0,.463.042l1-.6a.417.417,0,0,1,.563.5l-.463,1.076a.417.417,0,0,0,.1.442l.88.771a.417.417,0,0,1-.3.688l-1.163-.108a.417.417,0,0,0-.417.238l-.463,1.076a.417.417,0,0,1-.746-.071l-.242-1.134a.417.417,0,0,0-.35-.3l-1.163-.113a.417.417,0,0,1-.167-.734l1-.6a.417.417,0,0,0,.183-.417l-.259-1.142a.417.417,0,0,1,.65-.392ZM116.347,80.2l1.155.188a.417.417,0,0,0,.417-.208l.534-1.042a.417.417,0,0,1,.742.121l.163,1.155a.417.417,0,0,0,.325.329l1.155.188a.417.417,0,0,1,.117.742l-1.042.529a.417.417,0,0,0-.213.417l.179,1.155a.417.417,0,0,1-.671.338l-.834-.834a.417.417,0,0,0-.459-.075l-1.042.53a.417.417,0,0,1-.53-.534l.534-1.042a.417.417,0,0,0-.071-.459l-.834-.834a.417.417,0,0,1,.375-.663Zm22.606-13.413-.417,1.1a.417.417,0,0,1-.384.263l-1.172-.029a.417.417,0,0,0-.25.709l.93.713a.417.417,0,0,1,.133.446l-.392,1.1a.417.417,0,0,0,.617.471l.963-.663a.417.417,0,0,1,.463,0l.93.713a.417.417,0,0,0,.617-.417l-.334-1.122a.417.417,0,0,1,.154-.417l.963-.663a.417.417,0,0,0-.213-.767H140.4a.417.417,0,0,1-.367-.284l-.334-1.122a.417.417,0,0,0-.742-.038Zm13.6,47.926-.258-1.142a.417.417,0,0,1,.183-.417l1-.6a.417.417,0,0,0-.167-.734l-1.163-.108a.417.417,0,0,1-.35-.3l-.258-1.142a.417.417,0,0,0-.746-.071l-.463,1.076a.417.417,0,0,1-.417.238l-1.163-.108a.417.417,0,0,0-.3.688l.917.75a.417.417,0,0,1,.1.45l-.463,1.076a.417.417,0,0,0,.563.5l1-.6a.417.417,0,0,1,.463.042l.88.771a.417.417,0,0,0,.63-.367Zm-13.6,3.548.392-1.1a.417.417,0,0,1,.384-.263l1.172.029a.417.417,0,0,0,.25-.709l-.946-.709a.417.417,0,0,1-.133-.446l.392-1.1a.417.417,0,0,0-.6-.454l-.963.663a.417.417,0,0,1-.463,0l-.93-.713a.417.417,0,0,0-.617.417l.334,1.122a.417.417,0,0,1-.154.417l-.963.663a.417.417,0,0,0,.213.717l1.172.029a.417.417,0,0,1,.367.284l.334,1.122a.417.417,0,0,0,.759.042Zm22.585-13.413-1.155-.188a.417.417,0,0,0-.417.208l-.534,1.042a.417.417,0,0,1-.742-.121l-.179-1.155a.417.417,0,0,0-.325-.329l-1.155-.188a.417.417,0,0,1-.117-.742l1.042-.53a.417.417,0,0,0,.213-.417l-.179-1.155a.417.417,0,0,1,.671-.338l.834.834a.417.417,0,0,0,.459.075l1.042-.529a.417.417,0,0,1,.53.534l-.534,1.042a.417.417,0,0,0,.071.459l.834.834a.417.417,0,0,1-.359.663Z" transform="translate(-109.142 -62.71)" fill="#00b42a"/>
    </g>
    <text id="审批通过" transform="matrix(0.848, -0.53, 0.53, 0.848, 304.807, 199.83)" fill="#00b42a" font-size="12" font-family="PingFang SC Medium, PingFang SC" letter-spacing="-0.04em"><tspan x="0" y="0">审批通过</tspan></text>
  </g>
</svg>
